<?xml version="1.0" encoding="UTF-8" standalone="no"?>
<!-- Created with Inkscape (http://www.inkscape.org/) -->

<svg
   xmlns:dc="http://purl.org/dc/elements/1.1/"
   xmlns:cc="http://creativecommons.org/ns#"
   xmlns:rdf="http://www.w3.org/1999/02/22-rdf-syntax-ns#"
   xmlns:svg="http://www.w3.org/2000/svg"
   xmlns="http://www.w3.org/2000/svg"
   xmlns:sodipodi="http://sodipodi.sourceforge.net/DTD/sodipodi-0.dtd"
   xmlns:inkscape="http://www.inkscape.org/namespaces/inkscape"
   version="1.1"
   id="svg2"
   width="796"
   height="262"
   viewBox="0 0 796 262"
   sodipodi:docname="tarec_warranty.svg"
   inkscape:version="0.92.3 (2405546, 2018-03-11)">
  <metadata
     id="metadata8">
    <rdf:RDF>
      <cc:Work
         rdf:about="">
        <dc:format>image/svg+xml</dc:format>
        <dc:type
           rdf:resource="http://purl.org/dc/dcmitype/StillImage" />
        <dc:title></dc:title>
      </cc:Work>
    </rdf:RDF>
  </metadata>
  <defs
     id="defs6" />
  <sodipodi:namedview
     pagecolor="#ffffff"
     bordercolor="#666666"
     borderopacity="1"
     objecttolerance="10"
     gridtolerance="10"
     guidetolerance="10"
     inkscape:pageopacity="0"
     inkscape:pageshadow="2"
     inkscape:window-width="1920"
     inkscape:window-height="1016"
     id="namedview4"
     showgrid="false"
     inkscape:zoom="1.4142136"
     inkscape:cx="404.7245"
     inkscape:cy="104.77515"
     inkscape:window-x="0"
     inkscape:window-y="0"
     inkscape:window-maximized="1"
     inkscape:current-layer="svg2" />
  <g
     id="g97"
     transform="matrix(1.0044416,0,0,1,-1.2867966,-0.0279574)">
    <path
       style="fill:#eabf1a"
       d="M 0,131 V 0 H 398 796 V 131 262 H 398 0 Z"
       id="path101"
       inkscape:connector-curvature="0" />
    <path
       style="fill:#3b4e59"
       d="m 476.2141,208.39075 c -3.44616,-1.75704 -3.85418,-4.14025 -0.60647,-3.54238 10.44139,1.92216 13.08116,0.91779 14.06562,-5.35165 0.60685,-3.86466 0.56479,-3.94147 -1.27283,-2.32463 -2.96498,2.60875 -6.73833,3.13139 -10.68933,1.48055 -4.12635,-1.7241 -5.69625,-5.68706 -5.70551,-14.40264 -0.005,-4.93482 0.14451,-5.25 2.49442,-5.25 2.42318,0 2.5,0.21033 2.5,6.84501 0,5.36135 0.39638,7.20374 1.82874,8.5 2.4011,2.17297 5.40502,2.09604 8.25457,-0.21139 1.88352,-1.52518 2.38211,-3.07911 2.72728,-8.5 0.36832,-5.78434 0.67398,-6.63362 2.38746,-6.63362 1.86616,0 1.94838,0.62815 1.63351,12.48008 -0.31716,11.93797 -0.4459,12.5943 -2.96386,15.10957 -3.38031,3.37671 -9.97378,4.18712 -14.6536,1.8011 z m 269.0359,0.11838 c -3.79865,-1.65105 -4.68521,-5.20813 -1,-4.01224 8.85808,2.87455 13.75,1.01622 13.75,-5.22331 0,-3.02635 -0.1701,-3.24634 -1.48971,-1.92672 -2.27893,2.27892 -7.07227,2.97229 -10.19541,1.47477 -3.89208,-1.8662 -5.28316,-5.29698 -5.30014,-13.07163 -0.0133,-6.08825 0.18133,-6.75 1.98526,-6.75 1.79487,0 2,0.66667 2,6.5 0,5.16667 0.41026,6.91026 2,8.5 2.55523,2.55523 5.05196,2.53357 8.36514,-0.0726 2.35821,-1.85497 2.63486,-2.74743 2.63486,-8.5 0,-5.76075 0.20744,-6.42742 2,-6.42742 1.8834,0 2,0.66667 2,11.4349 0,6.2892 -0.43067,12.56764 -0.95704,13.9521 -1.88808,4.96604 -9.36269,6.91699 -15.79296,4.12213 z M 60.104631,201.41748 C 44.234064,197.14965 30.547978,183.86371 25.938193,168.25 c -0.690123,-2.3375 -1.521039,-4.24606 -1.846481,-4.24125 -0.325441,0.005 -2.328751,2.70481 -4.451798,6 -4.064618,6.30871 -4.551735,6.67943 -6.377527,4.85364 -0.850151,-0.85015 0.15141,-3.06118 3.963617,-8.75 2.805676,-4.18682 5.876361,-8.62043 6.823743,-9.85249 l 1.722513,-2.24009 9.075659,7.02376 c 10.353071,8.01236 10.624986,8.31906 8.752958,9.87271 -1.067662,0.88608 -2.020181,0.61579 -4.23899,-1.20287 -1.574038,-1.29017 -4.627783,-3.66598 -6.786101,-5.27958 L 28.651573,161.5 l 0.686688,3.43737 c 1.285887,6.4368 5.568756,14.11362 11.122015,19.93563 26.018215,27.27739 71.573734,12.94964 77.772784,-24.46046 3.994,-24.10302 -13.65419,-47.58882 -38.653712,-51.43946 -8.089887,-1.24608 -8.690369,-1.52019 -7.891388,-3.6023 0.491946,-1.28199 1.614836,-1.44111 6.206326,-0.87947 3.083143,0.37714 7.968214,1.47604 10.855714,2.44199 L 94,108.68959 94.01365,80.094794 C 94.02115,64.367657 94.285399,50.538149 94.600848,49.362554 95.541294,45.857772 107.10032,42 116.66124,42 119.35525,42 120.24426,41.487754 121,39.5 L 121.9505,37 H 137 152.0495 L 153,39.5 c 0.78015,2.051959 1.627,2.503112 4.72525,2.517364 5.40641,0.02487 17.14403,2.666968 19.91552,4.482912 L 180,48.046106 179.9847,114.27305 c -0.008,36.42482 -0.34592,66.72208 -0.75,67.32725 -3.46435,5.18834 -34.23474,8.6868 -57.61312,6.55036 l -10.87843,-0.99413 -5.06238,4.00158 c -6.182065,4.88664 -13.524593,8.69986 -20.18076,10.48054 -6.460992,1.72846 -18.536455,1.6233 -25.395369,-0.22117 z m 92.861009,-17.4319 c 6.8561,-0.53297 14.8436,-1.66033 17.75,-2.50524 L 176,179.94413 V 117.10335 54.262565 l -5.75,1.394113 c -13.14243,3.186442 -54.20431,3.215474 -66,0.04666 L 99,54.292974 99.0068,82.896487 99.0136,111.5 l 3.55365,2.42035 c 5.57093,3.79429 12.16578,11.72729 15.32874,18.43907 7.03048,14.91866 6.7327,29.52809 -0.91048,44.66915 -3.49343,6.92045 -3.61893,6.78071 6.51442,7.25327 14.5078,0.67656 17.31437,0.64834 29.46564,-0.29626 z M 130.61982,144.25 c 1.12774,-21.90699 1.44298,-19.70342 -2.86982,-20.06037 -2.0625,-0.1707 -3.74057,-0.6207 -3.72904,-1 0.0564,-1.85523 17.68848,-34.592777 18.8376,-34.975816 1.08252,-0.36084 1.19547,2.461997 0.61712,15.422246 -0.38936,8.72517 -0.76817,16.31394 -0.8418,16.86394 -0.0736,0.55 1.55362,1.13966 3.61612,1.31037 2.0625,0.1707 3.75,0.59293 3.75,0.9383 0,1.9984 -17.72378,35.23276 -18.794,35.24117 -1.03047,0.008 -1.14985,-2.79021 -0.58618,-13.73984 z m 9.37247,-7.23462 C 143.29653,130.42383 146,124.79883 146,124.51538 146,124.23192 144.58154,124 142.84787,124 h -3.15212 l 0.67028,-13.75 0.67028,-13.75 -2.03023,3.294027 C 136.81351,103.35145 128,120.66654 128,121.41666 c 0,0.25114 1.4625,0.59763 3.25,0.76998 l 3.25,0.31336 -0.26532,6.5 c -0.14593,3.575 -0.5291,9.5375 -0.85149,13.25 -0.3224,3.7125 -0.31897,6.75 0.008,6.75 0.32658,0 3.29725,-5.39308 6.60149,-11.98462 z m 24.62516,-84.563824 c 4.88369,-0.851644 9.24686,-1.915864 9.69593,-2.364934 1.03991,-1.039916 -6.74803,-3.015698 -14.88034,-3.775105 l -6.27372,-0.585849 -0.32966,2.887166 L 152.5,51.5 H 137 121.5 l -0.32957,-2.886205 -0.32956,-2.886204 -6.67044,0.633416 C 106.4074,47.098176 100,48.723796 100,49.956187 c 0,0.474199 3.2625,1.393597 7.25,2.043108 3.9875,0.649511 7.925,1.313178 8.75,1.474816 5.52823,1.083115 40.79635,0.341332 48.61745,-1.022555 z M 149.00019,44.75 l 2e-4,-3.25 -11.7502,0.176285 L 125.5,41.852569 125.18664,44.926285 124.87328,48 H 136.93664 149 Z m 45.01455,146.5 c 0.016,-11.69143 0.80352,-14.30929 5.31045,-17.6536 3.52111,-2.61281 11.01673,-2.72892 14.83094,-0.22975 4.06845,2.66574 5.33263,6.95977 5.33856,18.13335 0.005,9.3351 -0.12767,10 -1.99469,10 -1.63804,0 -2.05565,-0.76917 -2.3075,-4.25 L 214.885,193 H 206.4425 198 v 4.5 c 0,3.83333 -0.2963,4.5 -2,4.5 -1.87688,0 -1.99909,-0.66175 -1.98526,-10.75 z M 215,184.45455 c 0,-7.5683 -5.65502,-11.39138 -12.34268,-8.34428 C 199.704,177.4559 198,180.90858 198,185.54705 V 189 h 8.5 8.5 z M 237.08852,199.75 c -0.47408,-1.2375 -2.48795,-6.27495 -4.47525,-11.19433 C 230.62597,183.6363 229,179.4425 229,179.23612 c 0,-0.20637 0.98629,-0.23142 2.19176,-0.0557 1.75395,0.25572 2.78,1.96748 5.13672,8.56955 1.61973,4.5375 3.23958,8.25 3.59967,8.25 0.36009,0 1.98059,-3.825 3.60112,-8.5 2.19637,-6.3362 3.39501,-8.5 4.70858,-8.5 0.96918,0 1.76215,0.4275 1.76215,0.94999 0,0.5225 -1.87481,5.6975 -4.16624,11.5 C 242.62669,199.57114 241.23965,202 239.80901,202 c -1.02218,0 -2.2464,-1.0125 -2.72049,-2.25 z m 25.26457,0.32366 c -3.7193,-2.2679 -5.83657,-7.68297 -4.91815,-12.57856 1.30441,-6.95309 10.65423,-10.92265 16.34255,-6.9384 2.01155,1.40894 2.22251,1.40894 2.22251,0 0,-0.99918 0.90708,-1.5567 2.53275,-1.5567 h 2.53275 l -0.28275,11.23803 c -0.25027,9.94729 -0.49189,11.2781 -2.10363,11.58697 -1.17577,0.22532 -2.01275,-0.3848 -2.36247,-1.72213 -0.54151,-2.07073 -0.54204,-2.07074 -3.06398,-0.087 -3.17737,2.49932 -6.86344,2.51885 -10.89958,0.0578 z M 274,196 c 3.05813,-3.05813 2.72679,-9.28314 -0.63486,-11.92742 -3.01369,-2.37057 -4.27915,-2.52451 -7.7505,-0.94286 -4.72521,2.15295 -5.65493,8.77741 -1.84137,13.12028 2.10803,2.40063 7.71313,2.2636 10.22673,-0.25 z m 20,-5.42668 C 294,179.60451 294.10618,179 296.03275,179 c 1.93986,0 2.01983,0.51358 1.75,11.23803 -0.24596,9.77566 -0.51047,11.28166 -2.03275,11.57332 -1.58517,0.30372 -1.75,-0.75475 -1.75,-11.23803 z m 18.65499,9.59794 C 311.27889,198.65069 311,195.95444 311,184.17126 311,170.73427 311.10217,170 312.97178,170 c 1.85328,0 1.9885,0.82633 2.25,13.75 0.27116,13.4013 0.33528,13.7581 2.52822,14.06955 2.58383,0.36696 3.01503,2.6729 0.66821,3.57346 -2.61082,1.00187 -4.02151,0.70281 -5.76322,-1.22175 z M 334.5,201.05464 c -7.5286,-3.08139 -9.21313,-14.98873 -2.8307,-20.00915 3.42492,-2.69404 9.25229,-2.68161 12.69584,0.0271 L 347,183.14517 v -2.07258 C 347,179.65554 347.64294,179 349.03275,179 c 1.93986,0 2.01983,0.51358 1.75,11.23803 -0.24596,9.77566 -0.51047,11.28166 -2.03275,11.57332 -1.20853,0.23155 -1.75,-0.30167 -1.75,-1.72333 v -2.05862 l -3.25,1.98156 c -3.43958,2.09716 -5.9767,2.38342 -9.25,1.04368 z m 9.72673,-4.80464 c 2.39548,-2.72797 3.06195,-6.13885 1.79647,-9.194 -2.07515,-5.00984 -7.92791,-6.09841 -12.2732,-2.28273 -2.46643,2.16582 -2.32193,8.6548 0.25,11.22673 2.5136,2.5136 8.1187,2.65063 10.22673,0.25 z m 20.43994,5.08333 C 364.3,200.96667 364,193.76667 364,185.33333 V 170 h 2.5 c 2.39149,0 2.5,0.26289 2.5,6.0567 v 6.05671 l 2.22251,-1.55671 c 1.22237,-0.85618 3.86169,-1.5567 5.86514,-1.5567 11.20641,0 14.64185,16.45937 4.47156,21.42351 -3.66737,1.79005 -4.23616,1.8173 -8.19778,0.39271 -3.5389,-1.27258 -4.34483,-1.30185 -4.77782,-0.17351 -0.54792,1.42787 -2.78522,1.82234 -3.91694,0.69062 z M 381,196 c 3.05813,-3.05813 2.72679,-9.28314 -0.63486,-11.92742 C 378.91597,182.93266 376.95166,182 376,182 c -0.95166,0 -2.91597,0.93266 -4.36514,2.07258 C 366.17705,188.3657 369.19664,198 376,198 c 1.66667,0 3.88889,-0.88889 5,-2 z m 18,-5.42668 C 399,179.60451 399.10618,179 401.03275,179 c 1.93986,0 2.01983,0.51358 1.75,11.23803 -0.24596,9.77566 -0.51047,11.28166 -2.03275,11.57332 -1.58517,0.30372 -1.75,-0.75475 -1.75,-11.23803 z m 18.65499,9.59794 C 416.27889,198.65069 416,195.95444 416,184.17126 416,170.73427 416.10217,170 417.97178,170 c 1.85328,0 1.9885,0.82633 2.25,13.75 0.27116,13.4013 0.33528,13.7581 2.52822,14.06955 2.58383,0.36696 3.01503,2.6729 0.66821,3.57346 -2.61082,1.00187 -4.02151,0.70281 -5.76322,-1.22175 z M 435,190.57332 C 435,179.60451 435.10618,179 437.03275,179 c 1.93986,0 2.01983,0.51358 1.75,11.23803 -0.24596,9.77566 -0.51047,11.28166 -2.03275,11.57332 -1.58517,0.30372 -1.75,-0.75475 -1.75,-11.23803 z m 19.22251,9.86998 C 452.12831,198.97646 452,198.16823 452,186.4433 452,174.66667 452.10715,174 454,174 c 1.55556,0 2,0.66667 2,3 0,2.66667 0.33333,3 3,3 2,0 3,0.5 3,1.5 0,1.0048 -1.00487,1.5 -3.04381,1.5 h -3.04381 l 0.29381,7.25 c 0.29035,7.16469 0.32587,7.24956 3.01839,7.21255 3.64052,-0.05 4.43666,2.33555 1.19122,3.56946 -3.32866,1.26556 -3.58007,1.24166 -6.19329,-0.58871 z m 69.26051,0.0755 c -4.91457,-2.51325 -5.8061,-4.96037 -6.29125,-17.26875 l -0.44344,-11.25 H 519.37416 522 v 11 c 0,9.66667 0.24242,11.24242 2,13 2.78541,2.78541 8.05738,2.63227 10.82569,-0.31445 1.95236,-2.0782 2.17431,-3.4052 2.17431,-13 0,-10.01893 0.12478,-10.6856 2,-10.6856 1.87356,0 2,0.66667 2,10.54545 0,9.86308 0.15883,10.70429 2.45455,13 2.83122,2.83123 7.04002,3.19729 10.32294,0.89785 2.07651,-1.45444 2.22251,-2.30844 2.22251,-13 L 556,172 h 2.5 2.5 v 10.03212 c 0,11.65499 -1.41778,16.09832 -5.87156,18.40146 -4.34706,2.24795 -8.30204,1.93783 -12.61525,-0.98919 l -3.7659,-2.55561 -2.27535,2.13758 c -2.96341,2.78398 -9.08733,3.4876 -12.98892,1.49239 z m 54.9051,0.54775 C 574.41666,199.37428 572,195.10764 572,189.78822 c 0,-4.12895 0.48093,-5.423 2.92308,-7.86514 3.64375,-3.64376 9.42591,-4.0096 13.44206,-0.8505 L 591,183.14516 v -2.07258 C 591,179.65554 591.64294,179 593.03275,179 c 1.93986,0 2.01983,0.51358 1.75,11.23803 -0.24596,9.77566 -0.51047,11.28166 -2.03275,11.57332 -1.24342,0.23824 -1.75,-0.30975 -1.75,-1.89301 0,-2.11587 -0.0947,-2.14264 -1.87597,-0.53058 -2.26202,2.04709 -7.82861,2.91752 -10.73591,1.67874 z m 10.5393,-5.70136 c 3.41614,-4.34291 2.0263,-10.31324 -2.87327,-12.34271 C 580.75865,180.82896 576,184.57365 576,190.93426 c 0,6.74979 8.74551,9.74732 12.92742,4.43088 z m 19.73925,5.96819 C 608.3,200.96667 608,195.79167 608,189.83333 608,179.66667 608.12308,179 610,179 c 1.35668,0 2,0.66667 2,2.07258 v 2.07258 l 2.63486,-2.07258 C 617.96252,178.45504 620,178.42748 620,181 c 0,1.30823 -0.66667,2 -1.92742,2 C 614.31368,183 612,187.62343 612,195.13486 612,200.18914 611.6483,202 610.66667,202 c -0.73334,0 -1.63334,-0.3 -2,-0.66667 z m 22,0 C 630.3,200.96667 630,195.79167 630,189.83333 630,179.66667 630.12308,179 632,179 c 1.35668,0 2,0.66667 2,2.07258 v 2.07258 l 2.63486,-2.07258 C 639.96252,178.45504 642,178.42748 642,181 c 0,1.27733 -0.66667,2 -1.84501,2 -3.68485,0 -5.60104,3.70137 -5.99932,11.58845 -0.35199,6.97043 -1.34459,8.8893 -3.489,6.74488 z m 24.68642,-1.25967 c -3.7193,-2.2679 -5.83657,-7.68297 -4.91815,-12.57856 1.30441,-6.95309 10.65423,-10.92265 16.34255,-6.9384 2.01155,1.40894 2.22251,1.40894 2.22251,0 0,-0.99918 0.90708,-1.5567 2.53275,-1.5567 h 2.53275 l -0.28275,11.23803 c -0.25027,9.94729 -0.49189,11.2781 -2.10363,11.58697 -1.17577,0.22532 -2.01275,-0.3848 -2.36247,-1.72213 -0.54151,-2.07073 -0.54204,-2.07074 -3.06398,-0.087 -3.17737,2.49932 -6.86344,2.51885 -10.89958,0.0578 z M 667,196 c 3.09171,-3.09171 2.72658,-9.28331 -0.70672,-11.98394 -7.03565,-5.53425 -15.90758,5.22771 -9.83829,11.9342 2.43636,2.69216 7.87693,2.71782 10.54501,0.0497 z m 20,-5.5 c 0,-10.83333 0.11594,-11.5 2,-11.5 1.40287,0 2.00457,0.67177 2.01531,2.25 0.009,1.29357 0.32762,1.78229 0.75,1.1497 2.64265,-3.95773 10.24606,-4.47924 13.78014,-0.94515 2.24426,2.24425 2.45455,3.22951 2.45455,11.5 0,8.37878 -0.1474,9.04545 -2,9.04545 -1.83183,0 -2,-0.66667 -2,-7.92857 C 704,185.14514 702.82363,183 697.92857,183 692.77281,183 691,185.9425 691,194.5 c 0,6.83333 -0.17778,7.5 -2,7.5 -1.88406,0 -2,-0.66667 -2,-11.5 z m 35.63486,9.42742 C 720.0515,197.89535 720,197.62173 720,185.92742 720,174.66667 720.11179,174 722,174 c 1.55556,0 2,0.66667 2,3 0,2.7619 0.27778,3 3.5,3 2.44444,0 3.5,0.45238 3.5,1.5 0,1.04762 -1.05556,1.5 -3.5,1.5 H 724 l 0.0153,6.25 c 0.0187,7.62736 0.86637,9.2475 4.37736,8.3663 2.12541,-0.53345 2.60733,-0.30277 2.60733,1.24802 0,1.12755 -0.91644,2.14801 -2.25,2.50539 -3.18675,0.85402 -3.19976,0.85095 -6.11514,-1.44229 z M 69.654988,189.17126 c -2.078467,-2.29668 -2.107325,-4.57607 -0.08356,-6.59983 2.255398,-2.2554 6.056285,-1.94103 7.871867,0.65108 C 79.446628,186.08266 79.40751,186.59249 77,189 c -2.491152,2.49115 -5.188619,2.55405 -7.345012,0.17126 z m 5.904319,-2.26722 c 0.372538,-0.60278 0.0616,-1.71151 -0.690983,-2.46384 -1.734763,-1.73419 -4.397948,-0.26276 -3.545426,1.95888 0.702805,1.83148 3.230377,2.13275 4.236409,0.50496 z M 53.654988,185.17126 C 52.744744,184.16545 52,182.4352 52,181.32625 52,178.95077 54.952147,176 57.328741,176 59.406999,176 63,179.4845 63,181.5 c 0,2.08986 -3.624061,5.5 -5.845012,5.5 -1.014757,0 -2.589757,-0.82293 -3.5,-1.82874 z M 59.5,181.5 c 0,-2.97814 -3.903596,-2.6806 -4.33004,0.33004 -0.274624,1.93881 0.06119,2.27462 2,2 C 58.72332,183.61001 59.5,182.83333 59.5,181.5 Z m 26.7,3.3 c -2.804997,-2.805 -0.691727,-7.8 3.3,-7.8 1.155,0 2.64,0.54 3.3,1.2 0.66,0.66 1.2,2.145 1.2,3.3 0,1.155 -0.54,2.64 -1.2,3.3 -0.66,0.66 -2.145,1.2 -3.3,1.2 -1.155,0 -2.64,-0.54 -3.3,-1.2 z m 4.679652,-4.44501 c -0.871431,-1.05001 -1.474651,-1.10607 -2.524662,-0.23464 -1.050011,0.87143 -1.106074,1.47465 -0.234642,2.52466 0.871431,1.05001 1.474651,1.10607 2.524662,0.23464 1.050011,-0.87143 1.106074,-1.47465 0.234642,-2.52466 z m 202.838698,-6.64658 c -0.29332,-0.76438 -0.17036,-1.97704 0.27325,-2.69481 1.12175,-1.81505 4.23204,-0.41337 3.82082,1.72189 -0.41574,2.15877 -3.36965,2.86074 -4.09407,0.97292 z m 105,0 c -0.29332,-0.76438 -0.17036,-1.97704 0.27325,-2.69481 1.12175,-1.81505 4.23204,-0.41337 3.82082,1.72189 -0.41574,2.15877 -3.36965,2.86074 -4.09407,0.97292 z m 35.64584,-0.20172 c -0.34636,-0.90262 -0.15025,-2.12063 0.43581,-2.70669 1.52361,-1.52361 4.41041,-0.13109 4.01242,1.93549 -0.4433,2.30188 -3.64766,2.85743 -4.44823,0.7712 z M 97.666667,173.33333 C 97.3,172.96667 97,171.38202 97,169.81189 c 0,-3.99843 4.09624,-5.93976 6.99594,-3.31557 3.63384,3.28858 1.93218,7.50368 -3.02927,7.50368 -1.448337,0 -2.933337,-0.3 -3.300003,-0.66667 z m 4.887183,-2.42046 c 1.03052,-1.66742 -1.28721,-3.57951 -2.666718,-2.2 C 98.733208,169.86679 99.455411,172 101,172 c 0.48508,0 1.18431,-0.48921 1.55385,-1.08713 z M 56.666667,170.33333 C 54.727865,168.39453 56.505104,164.94161 62.5,159 L 69,152.55778 V 136.47889 C 69,119.43695 69.367405,118 73.724751,118 77.283887,118 78,121.46516 78,138.68729 v 15.55708 l -8.177382,8.37782 c -7.633192,7.82028 -11.046285,9.82081 -13.155951,7.71114 z m 10.199998,-7.66312 c 2.640132,-2.71087 4.075201,-4.95526 3.62951,-5.6764 -0.494185,-0.79961 -2.659493,0.70954 -6.569416,4.57867 -3.207744,3.17427 -5.601214,6.14525 -5.318822,6.60217 0.767966,1.24259 3.389231,-0.50448 8.258728,-5.50444 z M 74.5,154 c 0.339919,-0.55 -0.08352,-1 -0.940983,-1 C 72.701558,153 72,153.45 72,154 c 0,0.55 0.423442,1 0.940983,1 0.517541,0 1.219098,-0.45 1.559017,-1 z m 0.276733,-18.50254 C 74.608486,126.68025 74.107977,120.99492 73.5,120.99492 c -0.607977,0 -1.108486,5.68533 -1.276733,14.50254 C 71.983504,148.06254 72.154069,150 73.5,150 c 1.345931,0 1.516496,-1.93746 1.276733,-14.50254 z M 102.2,156.8 c -1.85546,-1.85546 -1.42474,-4.52918 1.00362,-6.23007 1.87774,-1.31522 2.50625,-1.34291 4.25,-0.18722 2.49694,1.65486 3.12311,4.21744 1.50651,6.16533 -1.46114,1.76056 -5.11533,1.89676 -6.76013,0.25196 z m 4.3,-3.8 c -0.48382,-0.78284 -1.05907,-0.84093 -1.72574,-0.17426 -0.55,0.55 -0.67341,1.52841 -0.27426,2.17426 0.48382,0.78284 1.05907,0.84093 1.72574,0.17426 0.55,-0.55 0.67341,-1.52841 0.27426,-2.17426 z m 618,4.35946 C 704.94523,153.36501 697.42669,149.66723 686.39396,138.6181 673.53278,125.7378 668.53636,113.25399 668.53636,94 c 0,-12.190606 1.38888,-18.778506 6.00847,-28.5 12.55644,-26.423888 41.68756,-39.975298 73.1172,-34.013152 9.18252,1.741908 20.29235,6.920098 26.26737,12.242984 l 4.23207,3.770168 -3.01314,2.872335 -3.01315,2.872335 -4.35851,-3.571471 C 757.91218,41.589986 747.18751,38.57781 730.59529,39.230278 718.27466,39.714771 712.7735,41.234424 703.84246,46.620539 686.96229,56.800594 677.59252,73.731342 677.62183,94 c 0.0177,12.24225 2.71773,21.38061 9.13922,30.93209 10.77746,16.03065 26.74032,24.01933 48.06263,24.05313 13.41238,0.0213 23.47757,-3.44229 33.78558,-11.62604 l 4.10926,-3.26242 2.87724,3.00319 2.87724,3.0032 -3.9865,3.5023 c -6.10103,5.36 -19.02602,11.30222 -28.10157,12.91959 -7.49865,1.33634 -17.55138,1.71963 -21.88493,0.83442 z M 239,98.054791 V 39 H 216.5 194 v -4 -4 h 50 50 v 4 4 h -22.49201 -22.492 l -0.258,58.75 -0.25799,58.75 -4.75,0.30479 -4.75,0.30479 z m 49.40589,57.255309 c 0.36629,-0.99555 13.34653,-29.3726 28.84496,-63.0601 L 345.42982,31 h 4.60105 4.60105 l 28.68404,62.351415 C 399.09218,127.64469 412,156.01935 412,156.40621 c 0,0.38685 -2.1375,0.56622 -4.75,0.39858 L 402.5,156.5 376.5,99.264643 c -14.3,-31.479447 -26.23253,-57.241947 -26.51673,-57.25 -0.2842,-0.0081 -12.2092,25.747857 -26.5,57.235357 L 297.5,156.5 l -4.88005,0.3101 c -4.35185,0.27654 -4.80797,0.11418 -4.21406,-1.5 z M 434,132.07628 v -24.92372 l 30.75,-0.32628 c 30.71444,-0.3259 30.75641,-0.32929 36.29563,-2.92739 7.36771,-3.45574 12.49859,-8.111651 15.76859,-14.30887 C 519.25733,84.959898 519.5,83.506118 519.5,73.5 519.5,63.493882 519.25733,62.040102 516.81422,57.40998 511.73094,47.776264 502.01196,41.724397 488.88811,40.020798 484.82465,39.493322 470.8125,39.047857 457.75,39.030876 L 434,39 v -4.088904 -4.088905 l 29.75,0.408516 c 27.27656,0.374551 30.30288,0.590566 36.39993,2.598177 13.42615,4.420903 23.94444,14.188814 27.30581,25.357789 6.47275,21.507328 -1.77889,42.317487 -20.00752,50.457777 -3.51695,1.57055 -6.40655,3.18872 -6.42134,3.59593 -0.0148,0.40721 6.72312,10.14004 14.97312,21.62852 8.25,11.48848 15,21.16781 15,21.50962 0,0.34182 -2.17339,0.62148 -4.82976,0.62148 h -4.82977 L 506.42024,135.94079 491.5,114.88158 l -5,0.55052 c -2.75,0.30278 -13.6625,0.55443 -24.25,0.55921 L 443,116 V 136.5 157 H 438.5 434 Z M 562,152.5 V 148 h 40.5 40.5 v 4.5 4.5 H 602.5 562 Z M 98.2,140.8 c -2.859931,-2.85993 -0.228177,-7.22544 3.99496,-6.62676 C 106.422,134.77246 105.39015,142 101.07756,142 100.1549,142 98.86,141.46 98.2,140.8 Z m 3.875,-3.075 c -0.12369,-1.1957 -1.49529,-0.96414 -1.925,0.325 -0.22,0.66 0.14,1.02 0.8,0.8 0.66,-0.22 1.16625,-0.72625 1.125,-1.125 z M 87.25,129.33772 c -2.135163,-0.86156 -1.523288,-6.11621 0.797988,-6.85295 3.814007,-1.21052 6.595712,3.47153 3.752012,6.31523 -1.250342,1.25034 -2.436525,1.39052 -4.55,0.53772 z M 90,126 c 0,-0.55 -0.45,-1 -1,-1 -0.55,0 -1,0.45 -1,1 0,0.55 0.45,1 1,1 0.55,0 1,-0.45 1,-1 z M 562,93 v -4 h 40.5 40.5 v 4 4 H 602.5 562 Z m 0,-58 v -4 h 40.5 40.5 v 4 4 H 602.5 562 Z"
       id="path99"
       inkscape:connector-curvature="0" />
  </g>
</svg>
